<svg width="10" height="10" viewBox="0 0 10 10" fill="none" xmlns="http://www.w3.org/2000/svg">
<path d="M4.43139 0.816987C4.7982 0.0737411 5.85805 0.0737398 6.22486 0.816985L6.85881 2.10151C7.00447 2.39665 7.28604 2.60122 7.61175 2.64855L9.0293 2.85453C9.84952 2.97372 10.177 3.98169 9.58352 4.56022L8.55776 5.56008C8.32208 5.78982 8.21453 6.12082 8.27017 6.44522L8.51231 7.85704C8.65242 8.67395 7.79499 9.29691 7.06136 8.91122L5.79347 8.24464C5.50214 8.09149 5.15411 8.09149 4.86278 8.24464L3.59489 8.91122C2.86126 9.29691 2.00383 8.67395 2.14394 7.85704L2.38608 6.44522C2.44172 6.12082 2.33417 5.78982 2.09849 5.56008L1.07274 4.56023C0.479219 3.98169 0.806728 2.97372 1.62695 2.85453L3.0445 2.64855C3.37021 2.60122 3.65178 2.39665 3.79744 2.10151L4.43139 0.816987Z" fill="#FFC64B"/>
</svg>
